<svg xmlns="http://www.w3.org/2000/svg" viewBox="0 0 64 64">
  <defs>
    <linearGradient id="g" x1="0" y1="0" x2="1" y2="1">
      <stop offset="0" stop-color="#5eead4"/>
      <stop offset="0.5" stop-color="#60a5fa"/>
      <stop offset="1" stop-color="#a78bfa"/>
    </linearGradient>
  </defs>
  <rect width="64" height="64" rx="15" fill="#0d1220"/>
  <rect x="1.5" y="1.5" width="61" height="61" rx="13.5" fill="none" stroke="#232c42"/>
  <g fill="url(#g)">
    <circle cx="32" cy="15" r="3.3"/>
    <path d="M32 17.6 L30.2 21 L33.8 21 Z"/>
    <path d="M29.5 21 h5 l1.4 8 -1.6 11 -2.3 5 -2.3 -5 -1.6 -11 z"/>
    <path d="M30.5 24 C24 22 18 21 12 15 C13 20 11 21 15 23 C11 24 12 27 17 27 C13 29 15 32 20 31 C25 30 28 28 30.5 27 Z"/>
    <path d="M33.5 24 C40 22 46 21 52 15 C51 20 53 21 49 23 C53 24 52 27 47 27 C51 29 49 32 44 31 C39 30 36 28 33.5 27 Z"/>
  </g>
</svg>
